<?xml version="1.0" encoding="UTF-8" standalone="no"?><!DOCTYPE svg PUBLIC "-//W3C//DTD SVG 1.1//EN" "http://www.w3.org/Graphics/SVG/1.1/DTD/svg11.dtd"><svg width="100%" height="100%" viewBox="0 0 35 55" version="1.1" xmlns="http://www.w3.org/2000/svg" xmlns:xlink="http://www.w3.org/1999/xlink" xml:space="preserve" style="fill-rule:evenodd;clip-rule:evenodd;stroke-linejoin:round;stroke-miterlimit:1.41421;"><path d="M0,0l5.824,0c0,0 0,18.933 0,23.547c0,0.266 0.105,0.522 0.293,0.71c0.188,0.188 0.443,0.294 0.709,0.294c3.059,0 12.071,0 12.071,0c0,0 -1.047,-3.284 -1.813,-5.689c-0.126,-0.396 0.004,-0.828 0.327,-1.089c0.323,-0.26 0.773,-0.294 1.131,-0.085c4.972,2.897 16.458,9.588 16.458,9.588c0,0 -11.486,6.691 -16.458,9.588c-0.358,0.209 -0.808,0.175 -1.131,-0.085c-0.323,-0.261 -0.453,-0.694 -0.327,-1.089c0.766,-2.405 1.813,-5.689 1.813,-5.689c0,0 -10.558,0 -15.891,0c-0.797,0 -1.562,-0.318 -2.125,-0.883c-0.564,-0.565 -0.881,-1.332 -0.881,-2.131c0,-7.608 0,-26.987 0,-26.987Z" style="fill:#447cca;"/></svg>