<?xml version="1.0" encoding="UTF-8" standalone="no"?><!DOCTYPE svg PUBLIC "-//W3C//DTD SVG 1.1//EN" "http://www.w3.org/Graphics/SVG/1.1/DTD/svg11.dtd"><svg width="100%" height="100%" viewBox="0 0 90 94" version="1.1" xmlns="http://www.w3.org/2000/svg" xmlns:xlink="http://www.w3.org/1999/xlink" xml:space="preserve" style="fill-rule:evenodd;clip-rule:evenodd;stroke-linejoin:round;stroke-miterlimit:1.41421;"><g id="backstage"><rect x="0" y="82.438" width="90" height="11.5" style="fill:#fff;"/><path d="M50.208,71.052c11.532,0 21.204,-7.44 21.204,-20.336c0,-6.448 -2.604,-11.78 -8.928,-15.128c-0.868,-0.372 -0.868,-0.868 -0.124,-1.364c4.464,-3.596 6.696,-9.424 6.696,-14.26c0,-11.532 -8.556,-19.964 -20.832,-19.964l-23.436,0c-4.092,0 -6.2,2.852 -6.2,6.2l0,58.404c0,3.348 2.232,6.448 6.82,6.448l24.8,0Zm-19.84,-27.9c0,-1.24 0.62,-1.86 1.984,-1.86l15.872,0c7.44,0 11.036,3.472 11.036,9.424c0,5.828 -3.72,9.176 -10.664,9.176l-16.492,0c-1.364,0 -1.736,-0.868 -1.736,-1.86l0,-14.88Zm0,-30.752c0,-1.364 0.744,-1.488 1.612,-1.488l15.004,0c6.324,0 9.92,3.1 9.92,9.052c0,5.332 -3.596,9.672 -10.044,9.672l-14.88,0c-1.116,0 -1.612,-0.62 -1.612,-1.736l0,-15.5Z" style="fill:#fff;fill-rule:nonzero;"/></g></svg>