<?xml version="1.0" encoding="UTF-8" standalone="no"?><!DOCTYPE svg PUBLIC "-//W3C//DTD SVG 1.1//EN" "http://www.w3.org/Graphics/SVG/1.1/DTD/svg11.dtd"><svg width="100%" height="100%" viewBox="0 0 487 70" version="1.1" xmlns="http://www.w3.org/2000/svg" xmlns:xlink="http://www.w3.org/1999/xlink" xml:space="preserve" style="fill-rule:evenodd;clip-rule:evenodd;stroke-linejoin:round;stroke-miterlimit:1.41421;"><g id="banyanjade-white"><path d="M5.723,56.469c-8.234,-18.372 -7.722,-36.798 3.114,-47.633c10.835,-10.836 29.261,-11.348 47.632,-3.114c8.234,18.371 7.722,36.797 -3.113,47.633c-10.836,10.835 -29.262,11.347 -47.633,3.114Zm44.519,-44.519c10.566,10.566 10.566,27.724 0,38.291c-10.567,10.566 -27.725,10.566 -38.291,0c-10.567,-10.567 -10.567,-27.725 0,-38.291c10.566,-10.567 27.724,-10.567 38.291,0Zm-3.114,3.113c8.848,8.849 8.848,23.216 0,32.064c-8.848,8.848 -23.215,8.848 -32.064,0c-8.848,-8.848 -8.848,-23.215 0,-32.064c8.849,-8.848 23.216,-8.848 32.064,0Zm-3.118,3.111c-6.523,0.289 -12.961,2.922 -17.937,7.898c-4.976,4.976 -7.609,11.414 -7.898,17.937c-7.126,-7.13 -7.125,-18.703 0.003,-25.831c7.129,-7.129 18.702,-7.13 25.832,-0.004Z" style="fill:#fff;"/><g id="banyanjade"><g id="banyanjade-logo-text"><path d="M85.573,4.063l0,53.254l21.301,0c13.009,0 17.575,-8.368 17.575,-15.595c0,-4.945 -2.587,-10.043 -9.206,-12.401c4.869,-2.358 7.304,-6.618 7.304,-11.032c0,-7.227 -4.108,-14.226 -16.813,-14.226l-20.161,0l0,0Zm18.867,21.986l-10.955,0l0,-14.682l12.476,0c7.076,0 8.522,3.88 8.522,7.303c0,4.337 -3.349,7.379 -10.043,7.379Zm3.042,23.964l-13.997,0l0,-16.659l11.716,0c8.976,0 11.184,4.26 11.184,8.748c0,3.728 -1.902,7.911 -8.903,7.911Z" style="fill:#fff;"/><path d="M155.792,57.317l7.608,0l0,-25.181c0,-10.1 -8.216,-14.607 -14.835,-14.607c-6.391,0 -11.077,2.054 -14.271,4.26l2.358,6.467c2.89,-2.13 5.979,-3.728 10.847,-3.728c5.706,0 8.293,3.189 8.293,7.988l0,0.884c-3.743,-0.567 -8.004,-1.072 -13.163,0c-6.832,1.42 -11.333,5.682 -11.333,12.421c0,8.214 6.403,12.41 13.845,12.41c5.174,0 8.674,-1.615 10.651,-3.669l0,2.755Zm-9.205,-6.086c-5.021,0 -7.719,-2.191 -7.685,-5.41c0.044,-4.144 3.221,-5.74 7.521,-6.266c2.795,-0.343 6.491,-0.181 9.369,0.354l0,7.138c-2.054,2.282 -5.173,4.184 -9.205,4.184l0,0Z" style="fill:#fff;"/><path d="M274.852,57.317l7.609,0l0,-25.181c0,-10.1 -8.217,-14.607 -14.836,-14.607c-6.391,0 -11.076,2.054 -14.271,4.26l2.358,6.467c2.891,-2.13 5.979,-3.728 10.848,-3.728c5.706,0 8.292,3.189 8.292,7.988l0,0.884c-3.743,-0.567 -8.003,-1.072 -13.163,0c-6.832,1.42 -11.333,5.682 -11.333,12.421c0,8.214 6.404,12.41 13.846,12.41c5.173,0 8.673,-1.615 10.65,-3.669l0,2.755Zm-9.204,-6.086c-5.022,0 -7.719,-2.191 -7.685,-5.41c0.044,-4.144 3.22,-5.74 7.52,-6.266c2.796,-0.343 6.491,-0.181 9.369,0.354l0,7.138c-2.054,2.282 -5.173,4.184 -9.204,4.184l0,0Z" style="fill:#fff;"/><path d="M396.728,57.317l7.608,0l0,-25.181c0,-10.1 -8.216,-14.607 -14.835,-14.607c-6.391,0 -11.076,2.054 -14.271,4.26l2.358,6.467c2.891,-2.13 5.979,-3.728 10.847,-3.728c5.706,0 8.293,3.189 8.293,7.988l0,0.884c-3.743,-0.567 -8.004,-1.072 -13.163,0c-6.832,1.42 -11.333,5.682 -11.333,12.421c0,8.214 6.403,12.41 13.845,12.41c5.174,0 8.674,-1.615 10.651,-3.669l0,2.755Zm-9.205,-6.086c-5.021,0 -7.719,-2.191 -7.684,-5.41c0.044,-4.144 3.22,-5.74 7.52,-6.266c2.795,-0.343 6.491,-0.181 9.369,0.354l0,7.138c-2.054,2.282 -5.173,4.184 -9.205,4.184l0,0Z" style="fill:#fff;"/><path d="M196.57,57.317l7.911,0l0,-23.203c0,-12.173 -6.555,-16.585 -13.998,-16.585c-3.772,0 -7.615,1.101 -10.042,3.876l0,-2.964l-7.911,0l0,38.876l7.911,0l0,-23.355c0,-6.695 3.652,-8.978 8.369,-8.978c4.412,0 7.76,2.587 7.76,9.13l0,23.203Z" style="fill:#fff;"/><path d="M218.784,69.892l8.064,0l19.704,-51.451l-7.911,0l-9.662,25.41c-0.533,1.446 -0.762,2.207 -1.066,3.424c-0.304,-1.217 -0.532,-1.978 -1.065,-3.424l-9.585,-25.41l-7.836,0l14.53,38.192l-5.173,13.259l0,0Z" style="fill:#fff;"/><path d="M315.631,57.317l7.912,0l0,-23.203c0,-12.173 -6.556,-16.585 -13.998,-16.585c-3.773,0 -7.617,1.101 -10.043,3.876l0,-2.964l-7.912,0l0,38.876l7.912,0l0,-23.355c0,-6.695 3.652,-8.978 8.368,-8.978c4.414,0 7.761,2.587 7.761,9.13l0,23.203Z" style="fill:#fff;"/><path d="M346.137,58.231c8.064,0 17.726,-3.881 17.726,-18.792l0,-35.376l-7.912,0l0,34.311c0,10.195 -4.792,12.249 -9.814,12.249c-4.641,0 -8.139,-1.826 -10.041,-5.782l-6.847,3.347c3.043,6.619 9.281,10.043 16.888,10.043l0,0Z" style="fill:#fff;"/><path d="M427.692,58.231c4.337,0 7.152,-1.37 9.206,-3.652l0,2.738l7.912,0l0,-53.254l-7.912,0l0,16.589c-2.218,-1.996 -4.945,-3.123 -9.206,-3.123c-9.509,0 -16.128,7.532 -16.128,20.312c0,12.782 6.315,20.39 16.128,20.39l0,0Zm1.142,-7.456c-5.858,0 -9.358,-5.401 -9.358,-12.934c0,-8.292 3.423,-12.857 9.358,-12.857c4.032,0 6.847,2.283 8.064,4.26l0,17.118c-1.75,2.815 -4.565,4.413 -8.064,4.413l0,0Z" style="fill:#fff;"/><path d="M470.448,58.231c6.086,0 11.717,-2.46 15.031,-9.657l-6.597,-2.709c-2.14,4.077 -5.463,5.264 -8.358,5.366c-5.017,0.178 -9.662,-4.032 -9.814,-10.423l25.685,0c1.722,-15.217 -6.741,-23.279 -15.947,-23.279c-10.651,0 -17.65,7.532 -17.65,20.312c0,12.782 6.847,20.39 17.65,20.39l0,0Zm-9.738,-23.813c0.381,-7.228 4.793,-9.89 9.738,-9.89c4.184,0 8.673,2.662 8.825,9.89l-18.563,0l0,0Z" style="fill:#fff;"/></g></g></g></svg>