<?xml version="1.0" encoding="UTF-8" standalone="no"?><!DOCTYPE svg PUBLIC "-//W3C//DTD SVG 1.1//EN" "http://www.w3.org/Graphics/SVG/1.1/DTD/svg11.dtd"><svg width="100%" height="100%" viewBox="0 0 488 71" version="1.1" xmlns="http://www.w3.org/2000/svg" xmlns:xlink="http://www.w3.org/1999/xlink" xml:space="preserve" style="fill-rule:evenodd;clip-rule:evenodd;stroke-linejoin:round;stroke-miterlimit:1.41421;"><g id="banyanjade-logo"><path d="M6.376,57.071c-8.233,-18.371 -7.721,-36.797 3.114,-47.632c10.836,-10.836 29.262,-11.348 47.633,-3.114c8.234,18.371 7.722,36.797 -3.114,47.633c-10.835,10.835 -29.261,11.347 -47.633,3.113Zm25.374,-52.449c14.943,0 27.076,12.133 27.076,27.076c0,14.944 -12.133,27.076 -27.076,27.076c-14.944,0 -27.076,-12.132 -27.076,-27.076c0,-14.943 12.132,-27.076 27.076,-27.076Zm0,4.404c12.513,0 22.672,10.159 22.672,22.672c0,12.513 -10.159,22.672 -22.672,22.672c-12.513,0 -22.672,-10.159 -22.672,-22.672c0,-12.513 10.159,-22.672 22.672,-22.672Zm-13.042,35.459c-3.232,-3.296 -5.226,-7.81 -5.226,-12.787c0,-10.082 8.185,-18.268 18.268,-18.268c5.047,0 9.618,2.051 12.926,5.364c-13.994,0.547 -25.275,11.735 -25.968,25.691Z" style="fill:#261300;"/><g id="banyanjade"><g id="banyanjade-logo-text"><path d="M86.783,4.76l0,53.254l21.302,0c13.009,0 17.574,-8.368 17.574,-15.595c0,-4.945 -2.587,-10.043 -9.206,-12.401c4.869,-2.358 7.304,-6.618 7.304,-11.032c0,-7.227 -4.108,-14.226 -16.813,-14.226l-20.161,0l0,0Zm18.867,21.986l-10.955,0l0,-14.682l12.476,0c7.076,0 8.522,3.879 8.522,7.303c0,4.337 -3.348,7.379 -10.043,7.379Zm3.043,23.964l-13.998,0l0,-16.66l11.716,0c8.977,0 11.184,4.261 11.184,8.749c0,3.728 -1.902,7.911 -8.902,7.911Z" style="fill:#261300;"/><path d="M157.002,58.014l7.608,0l0,-25.181c0,-10.1 -8.216,-14.607 -14.835,-14.607c-6.391,0 -11.076,2.054 -14.271,4.26l2.358,6.467c2.891,-2.13 5.979,-3.728 10.848,-3.728c5.706,0 8.292,3.189 8.292,7.988l0,0.884c-3.743,-0.567 -8.003,-1.072 -13.163,0c-6.832,1.42 -11.333,5.682 -11.333,12.421c0,8.213 6.403,12.41 13.845,12.41c5.174,0 8.674,-1.615 10.651,-3.669l0,2.755Zm-9.205,-6.086c-5.021,0 -7.719,-2.191 -7.684,-5.41c0.044,-4.144 3.22,-5.74 7.52,-6.266c2.796,-0.343 6.491,-0.181 9.369,0.354l0,7.138c-2.054,2.282 -5.173,4.184 -9.205,4.184l0,0Z" style="fill:#261300;"/><path d="M276.063,58.014l7.608,0l0,-25.181c0,-10.1 -8.216,-14.607 -14.836,-14.607c-6.391,0 -11.076,2.054 -14.271,4.26l2.358,6.467c2.891,-2.13 5.98,-3.728 10.848,-3.728c5.706,0 8.293,3.189 8.293,7.988l0,0.884c-3.744,-0.567 -8.004,-1.072 -13.164,0c-6.832,1.42 -11.333,5.682 -11.333,12.421c0,8.213 6.404,12.41 13.846,12.41c5.173,0 8.673,-1.615 10.651,-3.669l0,2.755Zm-9.205,-6.086c-5.022,0 -7.719,-2.191 -7.685,-5.41c0.044,-4.144 3.221,-5.74 7.52,-6.266c2.796,-0.343 6.492,-0.181 9.37,0.354l0,7.138c-2.054,2.282 -5.174,4.184 -9.205,4.184l0,0Z" style="fill:#261300;"/><path d="M397.938,58.014l7.609,0l0,-25.181c0,-10.1 -8.217,-14.607 -14.836,-14.607c-6.391,0 -11.076,2.054 -14.271,4.26l2.358,6.467c2.891,-2.13 5.98,-3.728 10.848,-3.728c5.706,0 8.292,3.189 8.292,7.988l0,0.884c-3.743,-0.567 -8.003,-1.072 -13.163,0c-6.832,1.42 -11.333,5.682 -11.333,12.421c0,8.213 6.404,12.41 13.846,12.41c5.173,0 8.673,-1.615 10.65,-3.669l0,2.755Zm-9.204,-6.086c-5.022,0 -7.719,-2.191 -7.685,-5.41c0.044,-4.144 3.221,-5.74 7.52,-6.266c2.796,-0.343 6.491,-0.181 9.369,0.354l0,7.138c-2.054,2.282 -5.173,4.184 -9.204,4.184l0,0Z" style="fill:#261300;"/><path d="M197.78,58.014l7.911,0l0,-23.203c0,-12.173 -6.555,-16.585 -13.997,-16.585c-3.773,0 -7.616,1.101 -10.043,3.876l0,-2.964l-7.911,0l0,38.876l7.911,0l0,-23.355c0,-6.695 3.652,-8.978 8.369,-8.978c4.412,0 7.76,2.587 7.76,9.13l0,23.203Z" style="fill:#261300;"/><path d="M219.994,70.588l8.064,0l19.704,-51.45l-7.911,0l-9.662,25.41c-0.533,1.446 -0.761,2.207 -1.065,3.423c-0.304,-1.216 -0.533,-1.977 -1.066,-3.423l-9.585,-25.41l-7.836,0l14.531,38.192l-5.174,13.258l0,0Z" style="fill:#261300;"/><path d="M316.841,58.014l7.912,0l0,-23.203c0,-12.173 -6.555,-16.585 -13.998,-16.585c-3.772,0 -7.617,1.101 -10.042,3.876l0,-2.964l-7.913,0l0,38.876l7.913,0l0,-23.355c0,-6.695 3.652,-8.978 8.368,-8.978c4.413,0 7.76,2.587 7.76,9.13l0,23.203Z" style="fill:#261300;"/><path d="M347.347,58.928c8.065,0 17.727,-3.881 17.727,-18.792l0,-35.376l-7.912,0l0,34.311c0,10.194 -4.793,12.249 -9.815,12.249c-4.64,0 -8.139,-1.826 -10.041,-5.782l-6.847,3.347c3.043,6.619 9.282,10.043 16.888,10.043l0,0Z" style="fill:#261300;"/><path d="M428.902,58.928c4.337,0 7.152,-1.37 9.207,-3.652l0,2.738l7.912,0l0,-53.254l-7.912,0l0,16.589c-2.219,-1.996 -4.945,-3.123 -9.207,-3.123c-9.508,0 -16.128,7.532 -16.128,20.312c0,12.782 6.315,20.39 16.128,20.39l0,0Zm1.142,-7.456c-5.858,0 -9.358,-5.401 -9.358,-12.934c0,-8.292 3.424,-12.857 9.358,-12.857c4.032,0 6.847,2.283 8.065,4.26l0,17.118c-1.75,2.815 -4.566,4.413 -8.065,4.413l0,0Z" style="fill:#261300;"/><path d="M471.658,58.928c6.087,0 11.717,-2.46 15.031,-9.658l-6.596,-2.708c-2.141,4.077 -5.464,5.264 -8.358,5.366c-5.018,0.178 -9.663,-4.032 -9.815,-10.423l25.685,0c1.723,-15.217 -6.741,-23.279 -15.947,-23.279c-10.651,0 -17.65,7.532 -17.65,20.312c0,12.782 6.847,20.39 17.65,20.39l0,0Zm-9.738,-23.813c0.381,-7.228 4.793,-9.89 9.738,-9.89c4.185,0 8.673,2.662 8.825,9.89l-18.563,0l0,0Z" style="fill:#261300;"/></g></g></g></svg>