<?xml version="1.0" encoding="UTF-8" standalone="no"?><!DOCTYPE svg PUBLIC "-//W3C//DTD SVG 1.1//EN" "http://www.w3.org/Graphics/SVG/1.1/DTD/svg11.dtd"><svg width="100%" height="100%" viewBox="0 0 487 71" version="1.1" xmlns="http://www.w3.org/2000/svg" xmlns:xlink="http://www.w3.org/1999/xlink" xml:space="preserve" style="fill-rule:evenodd;clip-rule:evenodd;stroke-linejoin:round;stroke-miterlimit:1.41421;"><g id="banyanjade-green"><g><path d="M5.723,56.841c-8.234,-18.371 -7.722,-36.797 3.114,-47.633c10.835,-10.835 29.261,-11.347 47.632,-3.114c8.234,18.372 7.722,36.798 -3.113,47.633c-10.836,10.836 -29.262,11.348 -47.633,3.114Z" style="fill:#00a86b;"/><path d="M50.242,12.322c10.566,10.567 10.566,27.725 0,38.291c-10.567,10.567 -27.725,10.567 -38.291,0c-10.567,-10.566 -10.567,-27.724 0,-38.291c10.566,-10.566 27.724,-10.566 38.291,0Zm-3.114,3.114c8.848,8.848 8.848,23.215 0,32.064c-8.848,8.848 -23.215,8.848 -32.064,0c-8.848,-8.849 -8.848,-23.216 0,-32.064c8.849,-8.848 23.216,-8.848 32.064,0Z" style="fill:#fff;"/><path d="M44.01,18.546c-6.523,0.29 -12.961,2.922 -17.937,7.899c-4.976,4.976 -7.609,11.414 -7.898,17.937c-7.126,-7.13 -7.125,-18.704 0.003,-25.832c7.129,-7.128 18.702,-7.129 25.832,-0.004Z" style="fill:#fff;"/></g><g id="banyanjade"><g id="banyanjade-logo-text"><path d="M85.573,4.436l0,53.254l21.301,0c13.009,0 17.575,-8.368 17.575,-15.596c0,-4.944 -2.587,-10.042 -9.206,-12.4c4.869,-2.359 7.304,-6.619 7.304,-11.032c0,-7.227 -4.108,-14.226 -16.813,-14.226l-20.161,0l0,0Zm18.867,21.986l-10.955,0l0,-14.682l12.476,0c7.076,0 8.522,3.879 8.522,7.303c0,4.336 -3.349,7.379 -10.043,7.379Zm3.042,23.964l-13.997,0l0,-16.66l11.716,0c8.976,0 11.184,4.26 11.184,8.749c0,3.728 -1.902,7.911 -8.903,7.911Z" style="fill:#00a86b;"/><path d="M155.792,57.69l7.608,0l0,-25.181c0,-10.1 -8.216,-14.607 -14.835,-14.607c-6.391,0 -11.077,2.054 -14.271,4.26l2.358,6.467c2.89,-2.131 5.979,-3.728 10.847,-3.728c5.706,0 8.293,3.189 8.293,7.987l0,0.885c-3.743,-0.567 -8.004,-1.072 -13.163,0c-6.832,1.42 -11.333,5.682 -11.333,12.421c0,8.213 6.403,12.409 13.845,12.409c5.174,0 8.674,-1.614 10.651,-3.668l0,2.755Zm-9.205,-6.087c-5.021,0 -7.719,-2.19 -7.685,-5.409c0.044,-4.144 3.221,-5.74 7.521,-6.267c2.795,-0.342 6.491,-0.18 9.369,0.355l0,7.138c-2.054,2.281 -5.173,4.183 -9.205,4.183l0,0Z" style="fill:#00a86b;"/><path d="M274.852,57.69l7.609,0l0,-25.181c0,-10.1 -8.217,-14.607 -14.836,-14.607c-6.391,0 -11.076,2.054 -14.271,4.26l2.358,6.467c2.891,-2.131 5.979,-3.728 10.848,-3.728c5.706,0 8.292,3.189 8.292,7.987l0,0.885c-3.743,-0.567 -8.003,-1.072 -13.163,0c-6.832,1.42 -11.333,5.682 -11.333,12.421c0,8.213 6.404,12.409 13.846,12.409c5.173,0 8.673,-1.614 10.65,-3.668l0,2.755Zm-9.204,-6.087c-5.022,0 -7.719,-2.19 -7.685,-5.409c0.044,-4.144 3.22,-5.74 7.52,-6.267c2.796,-0.342 6.491,-0.18 9.369,0.355l0,7.138c-2.054,2.281 -5.173,4.183 -9.204,4.183l0,0Z" style="fill:#00a86b;"/><path d="M396.728,57.69l7.608,0l0,-25.181c0,-10.1 -8.216,-14.607 -14.835,-14.607c-6.391,0 -11.076,2.054 -14.271,4.26l2.358,6.467c2.891,-2.131 5.979,-3.728 10.847,-3.728c5.706,0 8.293,3.189 8.293,7.987l0,0.885c-3.743,-0.567 -8.004,-1.072 -13.163,0c-6.832,1.42 -11.333,5.682 -11.333,12.421c0,8.213 6.403,12.409 13.845,12.409c5.174,0 8.674,-1.614 10.651,-3.668l0,2.755Zm-9.205,-6.087c-5.021,0 -7.719,-2.19 -7.684,-5.409c0.044,-4.144 3.22,-5.74 7.52,-6.267c2.795,-0.342 6.491,-0.18 9.369,0.355l0,7.138c-2.054,2.281 -5.173,4.183 -9.205,4.183l0,0Z" style="fill:#00a86b;"/><path d="M196.57,57.69l7.911,0l0,-23.204c0,-12.172 -6.555,-16.584 -13.998,-16.584c-3.772,0 -7.615,1.1 -10.042,3.876l0,-2.964l-7.911,0l0,38.876l7.911,0l0,-23.356c0,-6.694 3.652,-8.977 8.369,-8.977c4.412,0 7.76,2.587 7.76,9.129l0,23.204Z" style="fill:#00a86b;"/><path d="M218.784,70.264l8.064,0l19.704,-51.45l-7.911,0l-9.662,25.41c-0.533,1.446 -0.762,2.207 -1.066,3.423c-0.304,-1.216 -0.532,-1.977 -1.065,-3.423l-9.585,-25.41l-7.836,0l14.53,38.191l-5.173,13.259l0,0Z" style="fill:#00a86b;"/><path d="M315.631,57.69l7.912,0l0,-23.204c0,-12.172 -6.556,-16.584 -13.998,-16.584c-3.773,0 -7.617,1.1 -10.043,3.876l0,-2.964l-7.912,0l0,38.876l7.912,0l0,-23.356c0,-6.694 3.652,-8.977 8.368,-8.977c4.414,0 7.761,2.587 7.761,9.129l0,23.204Z" style="fill:#00a86b;"/><path d="M346.137,58.603c8.064,0 17.726,-3.88 17.726,-18.791l0,-35.376l-7.912,0l0,34.31c0,10.195 -4.792,12.249 -9.814,12.249c-4.641,0 -8.139,-1.825 -10.041,-5.781l-6.847,3.347c3.043,6.619 9.281,10.042 16.888,10.042l0,0Z" style="fill:#00a86b;"/><path d="M427.692,58.603c4.337,0 7.152,-1.369 9.206,-3.652l0,2.739l7.912,0l0,-53.254l-7.912,0l0,16.589c-2.218,-1.996 -4.945,-3.123 -9.206,-3.123c-9.509,0 -16.128,7.531 -16.128,20.312c0,12.781 6.315,20.389 16.128,20.389l0,0Zm1.142,-7.456c-5.858,0 -9.358,-5.4 -9.358,-12.933c0,-8.292 3.423,-12.857 9.358,-12.857c4.032,0 6.847,2.283 8.064,4.26l0,17.118c-1.75,2.814 -4.565,4.412 -8.064,4.412l0,0Z" style="fill:#00a86b;"/><path d="M470.448,58.603c6.086,0 11.717,-2.459 15.031,-9.657l-6.597,-2.708c-2.14,4.076 -5.463,5.264 -8.358,5.365c-5.017,0.179 -9.662,-4.031 -9.814,-10.422l25.685,0c1.722,-15.217 -6.741,-23.279 -15.947,-23.279c-10.651,0 -17.65,7.531 -17.65,20.312c0,12.781 6.847,20.389 17.65,20.389l0,0Zm-9.738,-23.813c0.381,-7.227 4.793,-9.889 9.738,-9.889c4.184,0 8.673,2.662 8.825,9.889l-18.563,0l0,0Z" style="fill:#00a86b;"/></g></g></g></svg>