<?xml version="1.0" encoding="UTF-8" standalone="no"?><!DOCTYPE svg PUBLIC "-//W3C//DTD SVG 1.1//EN" "http://www.w3.org/Graphics/SVG/1.1/DTD/svg11.dtd"><svg width="100%" height="100%" viewBox="0 0 59 59" version="1.1" xmlns="http://www.w3.org/2000/svg" xmlns:xlink="http://www.w3.org/1999/xlink" xml:space="preserve" style="fill-rule:evenodd;clip-rule:evenodd;stroke-linejoin:round;stroke-miterlimit:1.41421;"><g id="cp"><circle cx="29.5" cy="29.5" r="29.5" style="fill:#ffd700;"/><path d="M28.556,35.032c-0.436,-0.903 -1.494,-1.183 -2.241,-0.934c-0.966,0.28 -1.806,1.277 -2.491,1.619c-2.117,1.183 -4.794,0.591 -6.164,-1.37c-1.743,-2.49 -1.339,-6.724 -0.031,-9.526c1.245,-2.677 4.856,-3.456 6.88,-1.058c0.591,0.747 1.245,1.587 2.397,1.276c2.771,-0.685 0.716,-4.109 -0.591,-5.261c-2.055,-1.899 -6.258,-2.273 -8.811,-0.81c-3.362,1.868 -5.136,5.76 -5.354,8.81c-0.28,3.394 -0.094,8.063 2.802,10.461c2.428,2.023 5.883,2.708 8.623,2.117c2.459,-0.592 6.102,-2.958 4.981,-5.324Z" style="fill:#e45704;fill-rule:nonzero;"/><path d="M44.744,20.182c-0.28,-0.218 -0.591,-0.435 -0.903,-0.622c-0.311,-0.187 -0.684,-0.343 -1.089,-0.467c-0.343,-0.187 -0.747,-0.28 -1.09,-0.343c-0.373,-0.062 -0.716,-0.124 -1.12,-0.186c-0.499,-0.063 -0.997,-0.125 -1.495,-0.156c-0.467,-0.031 -0.965,-0.062 -1.525,-0.125c-1.028,-0.124 -2.833,0 -4.11,0.063l-0.062,0c-0.871,0 -1.276,0.218 -1.463,0.404c-0.156,0.125 -0.249,0.312 -0.342,0.498c-0.063,0.218 -0.125,0.467 -0.187,0.685c-0.031,0.249 -0.094,0.498 -0.094,0.779l0,17.215c0,0.716 0.187,1.152 0.343,1.526c0.249,0.56 0.654,0.747 1.214,0.84c0.529,0.094 1.308,0.063 1.743,-0.187c0.81,-0.467 0.841,-1.4 0.965,-2.179l0,-6.444c0.156,-0.031 0.685,-0.031 0.841,-0.031c0.778,-0.031 1.276,-0.062 2.148,-0.125c1.93,-0.155 3.487,-0.373 5.137,-1.089c2.086,-0.81 3.113,-2.553 3.268,-4.452c0.156,-1.992 -0.622,-4.14 -2.179,-5.604Zm-1.868,5.137c-0.217,2.335 -3.424,2.646 -5.416,2.677l-1.931,0.032c0,-0.717 0,-1.464 0.032,-2.211c0,-1.37 0,-2.49 -0.032,-3.767c0.374,0 0.685,0 0.872,0.031c0.467,0.032 1.961,0.063 2.428,0.094c2.024,0.249 4.172,1.121 4.047,3.144Z" style="fill:#e45704;fill-rule:nonzero;"/></g></svg>