<?xml version="1.0" encoding="UTF-8" standalone="no"?><!DOCTYPE svg PUBLIC "-//W3C//DTD SVG 1.1//EN" "http://www.w3.org/Graphics/SVG/1.1/DTD/svg11.dtd"><svg width="100%" height="100%" viewBox="0 0 194 46" version="1.1" xmlns="http://www.w3.org/2000/svg" xmlns:xlink="http://www.w3.org/1999/xlink" xml:space="preserve" style="fill-rule:evenodd;clip-rule:evenodd;stroke-linejoin:round;stroke-miterlimit:1.41421;"><g id="dcp_logo"><path d="M191,9c-3.311,0 -6,-2.689 -6,-6l-176,0c0,3.311 -2.689,6 -6,6l0,28c3.311,0 6,2.689 6,6l176,0c0,-3.311 2.689,-6 6,-6l0,-28Z" style="fill:#fbf2eb;"/><path d="M186.361,3.06l0.002,0.06l0.001,0.06l0.003,0.06l0.003,0.059l0.005,0.059l0.004,0.059l0.006,0.058l0.006,0.059l0.007,0.058l0.008,0.058l0.009,0.058l0.009,0.057l0.01,0.057l0.01,0.057l0.011,0.057l0.012,0.056l0.013,0.056l0.013,0.056l0.014,0.055l0.015,0.056l0.015,0.055l0.016,0.054l0.016,0.055l0.018,0.054l0.018,0.054l0.018,0.054l0.019,0.053l0.02,0.053l0.02,0.053l0.021,0.052l0.022,0.052l0.022,0.052l0.023,0.051l0.024,0.051l0.024,0.051l0.025,0.051l0.025,0.05l0.026,0.05l0.026,0.049l0.027,0.049l0.028,0.049l0.028,0.048l0.029,0.048l0.03,0.048l0.029,0.047l0.031,0.047l0.031,0.047l0.031,0.046l0.033,0.045l0.032,0.046l0.033,0.045l0.034,0.044l0.034,0.044l0.035,0.044l0.035,0.043l0.036,0.043l0.036,0.042l0.037,0.042l0.038,0.042l0.037,0.041l0.039,0.041l0.038,0.04l0.04,0.039l0.039,0.04l0.04,0.038l0.041,0.039l0.041,0.037l0.042,0.038l0.042,0.037l0.042,0.036l0.043,0.036l0.043,0.035l0.044,0.035l0.044,0.034l0.044,0.034l0.045,0.033l0.046,0.032l0.045,0.033l0.046,0.031l0.047,0.031l0.047,0.031l0.047,0.029l0.048,0.03l0.048,0.029l0.048,0.028l0.049,0.028l0.049,0.027l0.049,0.026l0.05,0.026l0.05,0.025l0.051,0.025l0.051,0.024l0.051,0.024l0.051,0.023l0.052,0.022l0.052,0.022l0.052,0.021l0.053,0.02l0.053,0.02l0.053,0.019l0.054,0.018l0.054,0.018l0.054,0.018l0.055,0.016l0.054,0.016l0.055,0.015l0.056,0.015l0.055,0.014l0.056,0.013l0.056,0.013l0.057,0.012l0.056,0.011l0.057,0.01l0.057,0.01l0.058,0.009l0.057,0.009l0.058,0.008l0.058,0.007l0.059,0.006l0.058,0.006l0.059,0.004l0.059,0.005l0.059,0.003l0.06,0.003l0.06,0.001l0.06,0.002l1.421,0.009l0,30.704l-1.421,0.009l-0.06,0.002l-0.06,0.001l-0.06,0.003l-0.059,0.003l-0.059,0.005l-0.059,0.004l-0.058,0.006l-0.059,0.006l-0.058,0.007l-0.058,0.008l-0.057,0.009l-0.058,0.009l-0.057,0.01l-0.057,0.01l-0.056,0.011l-0.057,0.012l-0.056,0.013l-0.056,0.013l-0.055,0.014l-0.056,0.015l-0.055,0.015l-0.054,0.016l-0.055,0.016l-0.054,0.018l-0.054,0.018l-0.054,0.018l-0.053,0.019l-0.053,0.02l-0.053,0.02l-0.052,0.022l-0.052,0.021l-0.052,0.022l-0.051,0.023l-0.051,0.024l-0.051,0.024l-0.051,0.025l-0.05,0.025l-0.05,0.026l-0.049,0.026l-0.049,0.027l-0.049,0.028l-0.048,0.028l-0.048,0.029l-0.048,0.03l-0.047,0.029l-0.047,0.031l-0.047,0.031l-0.046,0.031l-0.045,0.033l-0.046,0.032l-0.045,0.033l-0.044,0.034l-0.044,0.034l-0.044,0.035l-0.043,0.035l-0.043,0.036l-0.042,0.036l-0.042,0.037l-0.042,0.038l-0.041,0.037l-0.041,0.039l-0.04,0.038l-0.039,0.04l-0.04,0.039l-0.038,0.04l-0.039,0.041l-0.037,0.041l-0.038,0.042l-0.037,0.042l-0.036,0.042l-0.036,0.043l-0.035,0.043l-0.035,0.044l-0.034,0.044l-0.034,0.044l-0.033,0.045l-0.032,0.046l-0.033,0.045l-0.031,0.046l-0.031,0.047l-0.031,0.047l-0.029,0.047l-0.03,0.048l-0.029,0.048l-0.028,0.048l-0.028,0.049l-0.027,0.049l-0.026,0.049l-0.026,0.05l-0.025,0.05l-0.025,0.051l-0.024,0.051l-0.024,0.051l-0.023,0.051l-0.022,0.052l-0.022,0.052l-0.021,0.052l-0.02,0.053l-0.02,0.053l-0.019,0.053l-0.018,0.054l-0.018,0.054l-0.018,0.054l-0.016,0.055l-0.016,0.054l-0.015,0.055l-0.015,0.056l-0.014,0.055l-0.013,0.056l-0.013,0.056l-0.012,0.056l-0.011,0.057l-0.01,0.057l-0.01,0.057l-0.009,0.057l-0.009,0.058l-0.008,0.058l-0.007,0.058l-0.006,0.059l-0.006,0.058l-0.004,0.059l-0.005,0.059l-0.003,0.059l-0.003,0.06l-0.001,0.06l-0.002,0.06l-0.008,1.421l-178.705,0l-0.009,-1.421l-0.002,-0.06l-0.001,-0.06l-0.003,-0.06l-0.003,-0.059l-0.005,-0.059l-0.004,-0.059l-0.006,-0.058l-0.006,-0.059l-0.007,-0.058l-0.008,-0.058l-0.009,-0.057l-0.009,-0.058l-0.01,-0.057l-0.01,-0.057l-0.011,-0.056l-0.012,-0.057l-0.013,-0.056l-0.013,-0.056l-0.014,-0.055l-0.015,-0.056l-0.015,-0.055l-0.016,-0.054l-0.016,-0.055l-0.018,-0.054l-0.018,-0.054l-0.018,-0.054l-0.019,-0.053l-0.02,-0.053l-0.02,-0.053l-0.021,-0.052l-0.022,-0.052l-0.022,-0.052l-0.023,-0.051l-0.024,-0.051l-0.024,-0.051l-0.025,-0.051l-0.025,-0.05l-0.026,-0.05l-0.026,-0.049l-0.027,-0.049l-0.028,-0.049l-0.028,-0.048l-0.029,-0.048l-0.029,-0.048l-0.03,-0.047l-0.031,-0.047l-0.031,-0.047l-0.031,-0.046l-0.033,-0.045l-0.032,-0.046l-0.033,-0.045l-0.034,-0.044l-0.034,-0.044l-0.035,-0.044l-0.035,-0.043l-0.036,-0.043l-0.037,-0.042l-0.036,-0.042l-0.038,-0.042l-0.037,-0.041l-0.039,-0.041l-0.038,-0.04l-0.04,-0.039l-0.039,-0.04l-0.04,-0.038l-0.041,-0.039l-0.041,-0.037l-0.042,-0.038l-0.041,-0.036l-0.043,-0.037l-0.043,-0.036l-0.043,-0.035l-0.044,-0.035l-0.044,-0.034l-0.044,-0.034l-0.045,-0.033l-0.046,-0.032l-0.045,-0.033l-0.046,-0.031l-0.047,-0.031l-0.047,-0.031l-0.047,-0.03l-0.048,-0.029l-0.048,-0.029l-0.048,-0.028l-0.049,-0.028l-0.049,-0.027l-0.049,-0.026l-0.05,-0.026l-0.05,-0.025l-0.051,-0.025l-0.051,-0.024l-0.051,-0.024l-0.051,-0.023l-0.052,-0.022l-0.052,-0.021l-0.052,-0.022l-0.053,-0.02l-0.053,-0.02l-0.053,-0.019l-0.054,-0.018l-0.054,-0.018l-0.054,-0.018l-0.055,-0.016l-0.054,-0.016l-0.055,-0.015l-0.056,-0.015l-0.055,-0.014l-0.056,-0.013l-0.056,-0.013l-0.057,-0.012l-0.056,-0.011l-0.057,-0.01l-0.057,-0.01l-0.058,-0.009l-0.057,-0.009l-0.058,-0.008l-0.058,-0.007l-0.059,-0.006l-0.058,-0.006l-0.059,-0.004l-0.059,-0.005l-0.059,-0.003l-0.06,-0.003l-0.06,-0.001l-0.06,-0.002l-1.421,-0.009l0,-30.704l1.421,-0.009l0.06,-0.002l0.06,-0.001l0.06,-0.003l0.059,-0.003l0.059,-0.005l0.059,-0.004l0.058,-0.006l0.059,-0.006l0.058,-0.007l0.058,-0.008l0.057,-0.009l0.058,-0.009l0.057,-0.01l0.057,-0.01l0.056,-0.011l0.057,-0.012l0.056,-0.013l0.056,-0.013l0.055,-0.014l0.056,-0.015l0.055,-0.015l0.054,-0.016l0.055,-0.016l0.054,-0.018l0.054,-0.018l0.054,-0.018l0.053,-0.019l0.053,-0.02l0.053,-0.02l0.052,-0.021l0.052,-0.022l0.052,-0.022l0.051,-0.023l0.051,-0.024l0.051,-0.024l0.051,-0.025l0.05,-0.025l0.05,-0.026l0.049,-0.026l0.049,-0.027l0.049,-0.028l0.048,-0.028l0.048,-0.029l0.048,-0.029l0.047,-0.03l0.047,-0.031l0.047,-0.031l0.046,-0.031l0.045,-0.033l0.046,-0.032l0.045,-0.033l0.044,-0.034l0.044,-0.034l0.044,-0.035l0.043,-0.035l0.043,-0.036l0.042,-0.036l0.042,-0.037l0.042,-0.038l0.041,-0.037l0.041,-0.039l0.04,-0.038l0.039,-0.04l0.04,-0.039l0.038,-0.04l0.039,-0.041l0.037,-0.041l0.038,-0.042l0.036,-0.041l0.037,-0.043l0.036,-0.043l0.035,-0.043l0.035,-0.044l0.034,-0.044l0.034,-0.044l0.033,-0.045l0.032,-0.046l0.033,-0.045l0.031,-0.046l0.031,-0.047l0.031,-0.047l0.03,-0.047l0.029,-0.048l0.029,-0.048l0.028,-0.048l0.028,-0.049l0.027,-0.049l0.026,-0.049l0.026,-0.05l0.025,-0.05l0.025,-0.051l0.024,-0.051l0.024,-0.051l0.023,-0.051l0.022,-0.052l0.022,-0.052l0.021,-0.052l0.02,-0.053l0.02,-0.053l0.019,-0.053l0.018,-0.054l0.018,-0.054l0.018,-0.054l0.016,-0.055l0.016,-0.054l0.015,-0.055l0.015,-0.056l0.014,-0.055l0.013,-0.056l0.013,-0.056l0.012,-0.057l0.011,-0.056l0.01,-0.057l0.01,-0.057l0.009,-0.058l0.009,-0.057l0.008,-0.058l0.007,-0.058l0.006,-0.059l0.006,-0.058l0.004,-0.059l0.005,-0.059l0.003,-0.059l0.003,-0.06l0.001,-0.06l0.002,-0.06l0.009,-1.421l178.705,0l0.008,1.421Zm-176.126,1.301l-0.006,0.031l-0.018,0.09l-0.019,0.089l-0.02,0.09l-0.021,0.089l-0.022,0.088l-0.023,0.088l-0.025,0.088l-0.025,0.087l-0.026,0.087l-0.028,0.086l-0.028,0.086l-0.03,0.085l-0.03,0.085l-0.032,0.085l-0.032,0.084l-0.034,0.083l-0.034,0.083l-0.036,0.082l-0.036,0.082l-0.038,0.082l-0.038,0.08l-0.039,0.081l-0.041,0.079l-0.041,0.079l-0.042,0.079l-0.043,0.078l-0.044,0.077l-0.045,0.077l-0.045,0.076l-0.047,0.076l-0.047,0.075l-0.049,0.074l-0.049,0.074l-0.05,0.073l-0.051,0.072l-0.051,0.072l-0.053,0.071l-0.053,0.071l-0.054,0.069l-0.055,0.07l-0.056,0.068l-0.057,0.068l-0.057,0.067l-0.058,0.066l-0.059,0.066l-0.06,0.065l-0.061,0.064l-0.061,0.063l-0.062,0.063l-0.063,0.062l-0.063,0.061l-0.064,0.061l-0.065,0.06l-0.066,0.059l-0.066,0.058l-0.067,0.057l-0.068,0.057l-0.068,0.056l-0.07,0.055l-0.069,0.054l-0.071,0.053l-0.071,0.053l-0.072,0.051l-0.072,0.051l-0.073,0.05l-0.074,0.05l-0.074,0.048l-0.075,0.047l-0.076,0.047l-0.076,0.045l-0.077,0.045l-0.077,0.044l-0.078,0.043l-0.079,0.042l-0.079,0.041l-0.079,0.041l-0.081,0.039l-0.08,0.038l-0.082,0.038l-0.082,0.036l-0.082,0.036l-0.083,0.034l-0.083,0.034l-0.084,0.032l-0.085,0.032l-0.084,0.03l-0.086,0.03l-0.086,0.028l-0.086,0.028l-0.087,0.026l-0.087,0.025l-0.088,0.025l-0.088,0.023l-0.088,0.022l-0.089,0.021l-0.09,0.02l-0.089,0.019l-0.09,0.018l-0.031,0.006l0,25.53l0.031,0.006l0.09,0.018l0.089,0.019l0.09,0.02l0.089,0.021l0.088,0.022l0.088,0.023l0.088,0.025l0.087,0.025l0.087,0.026l0.086,0.028l0.086,0.028l0.085,0.03l0.085,0.03l0.085,0.032l0.084,0.032l0.083,0.034l0.083,0.034l0.082,0.036l0.082,0.036l0.082,0.038l0.08,0.038l0.081,0.039l0.079,0.041l0.079,0.041l0.079,0.042l0.078,0.043l0.077,0.044l0.077,0.045l0.076,0.045l0.076,0.047l0.075,0.047l0.074,0.048l0.074,0.05l0.073,0.05l0.072,0.051l0.072,0.051l0.071,0.053l0.071,0.053l0.069,0.054l0.07,0.055l0.068,0.056l0.068,0.057l0.067,0.057l0.066,0.058l0.066,0.059l0.065,0.06l0.064,0.061l0.063,0.061l0.063,0.062l0.062,0.063l0.061,0.063l0.061,0.064l0.06,0.065l0.059,0.066l0.058,0.066l0.057,0.067l0.057,0.068l0.056,0.068l0.055,0.07l0.054,0.069l0.053,0.071l0.053,0.071l0.051,0.072l0.051,0.072l0.05,0.073l0.049,0.074l0.049,0.074l0.047,0.075l0.047,0.076l0.045,0.076l0.045,0.077l0.044,0.077l0.043,0.078l0.042,0.079l0.041,0.079l0.041,0.079l0.039,0.081l0.038,0.08l0.038,0.082l0.036,0.082l0.036,0.082l0.034,0.083l0.034,0.083l0.032,0.084l0.032,0.085l0.03,0.085l0.03,0.085l0.028,0.086l0.028,0.086l0.026,0.087l0.025,0.087l0.025,0.088l0.023,0.088l0.022,0.088l0.021,0.089l0.02,0.09l0.019,0.089l0.018,0.09l0.006,0.031l173.53,0l0.006,-0.031l0.018,-0.09l0.019,-0.089l0.02,-0.09l0.021,-0.089l0.022,-0.088l0.023,-0.088l0.025,-0.088l0.025,-0.087l0.026,-0.087l0.028,-0.086l0.028,-0.086l0.03,-0.085l0.03,-0.085l0.032,-0.085l0.032,-0.084l0.034,-0.083l0.035,-0.083l0.035,-0.082l0.036,-0.082l0.038,-0.082l0.038,-0.08l0.039,-0.081l0.041,-0.079l0.041,-0.079l0.042,-0.079l0.043,-0.078l0.044,-0.077l0.045,-0.077l0.045,-0.076l0.047,-0.076l0.047,-0.075l0.049,-0.074l0.049,-0.074l0.05,-0.073l0.051,-0.072l0.051,-0.072l0.053,-0.071l0.053,-0.071l0.054,-0.069l0.055,-0.07l0.056,-0.068l0.057,-0.068l0.057,-0.067l0.058,-0.066l0.059,-0.066l0.06,-0.065l0.061,-0.064l0.061,-0.063l0.062,-0.063l0.063,-0.062l0.063,-0.061l0.064,-0.061l0.065,-0.06l0.066,-0.059l0.066,-0.058l0.067,-0.057l0.068,-0.057l0.068,-0.056l0.07,-0.055l0.069,-0.054l0.071,-0.053l0.071,-0.053l0.072,-0.051l0.072,-0.051l0.073,-0.05l0.074,-0.05l0.074,-0.048l0.075,-0.047l0.076,-0.047l0.076,-0.045l0.077,-0.045l0.077,-0.044l0.078,-0.043l0.079,-0.042l0.079,-0.041l0.079,-0.041l0.081,-0.039l0.08,-0.038l0.082,-0.038l0.082,-0.036l0.082,-0.036l0.083,-0.034l0.083,-0.034l0.084,-0.032l0.085,-0.032l0.085,-0.03l0.085,-0.03l0.086,-0.028l0.086,-0.028l0.087,-0.026l0.087,-0.025l0.088,-0.025l0.088,-0.023l0.088,-0.022l0.089,-0.021l0.09,-0.02l0.089,-0.019l0.09,-0.018l0.031,-0.006l0,-25.53l-0.031,-0.006l-0.09,-0.018l-0.089,-0.019l-0.09,-0.02l-0.089,-0.021l-0.088,-0.022l-0.088,-0.023l-0.088,-0.025l-0.087,-0.025l-0.087,-0.026l-0.086,-0.028l-0.086,-0.028l-0.086,-0.03l-0.084,-0.03l-0.085,-0.032l-0.084,-0.033l-0.083,-0.033l-0.083,-0.034l-0.082,-0.036l-0.082,-0.036l-0.082,-0.038l-0.08,-0.038l-0.081,-0.039l-0.079,-0.041l-0.079,-0.041l-0.079,-0.042l-0.078,-0.043l-0.077,-0.044l-0.077,-0.045l-0.076,-0.045l-0.076,-0.047l-0.075,-0.047l-0.074,-0.048l-0.074,-0.05l-0.073,-0.05l-0.072,-0.051l-0.072,-0.051l-0.071,-0.053l-0.071,-0.053l-0.069,-0.054l-0.07,-0.055l-0.068,-0.056l-0.068,-0.057l-0.067,-0.057l-0.066,-0.058l-0.066,-0.059l-0.065,-0.06l-0.064,-0.061l-0.063,-0.061l-0.063,-0.062l-0.062,-0.063l-0.061,-0.063l-0.061,-0.064l-0.06,-0.065l-0.059,-0.066l-0.058,-0.066l-0.057,-0.067l-0.057,-0.068l-0.056,-0.068l-0.055,-0.07l-0.054,-0.069l-0.053,-0.071l-0.053,-0.071l-0.051,-0.072l-0.051,-0.072l-0.05,-0.073l-0.049,-0.074l-0.049,-0.074l-0.047,-0.075l-0.047,-0.076l-0.045,-0.076l-0.045,-0.077l-0.044,-0.077l-0.043,-0.078l-0.042,-0.079l-0.041,-0.079l-0.041,-0.079l-0.039,-0.081l-0.038,-0.08l-0.038,-0.082l-0.036,-0.082l-0.035,-0.082l-0.035,-0.083l-0.034,-0.083l-0.032,-0.084l-0.032,-0.085l-0.03,-0.085l-0.03,-0.085l-0.028,-0.086l-0.028,-0.086l-0.026,-0.087l-0.025,-0.087l-0.025,-0.088l-0.023,-0.088l-0.022,-0.088l-0.021,-0.089l-0.02,-0.09l-0.019,-0.089l-0.018,-0.09l-0.006,-0.031l-173.53,0Z" style="fill:#5a2c0c;"/><g><path d="M23.275,33.791c0.364,0.234 0.884,0.286 1.403,0.286c0,0 13.512,0.052 13.59,0.052c0.467,0 1.039,0 1.377,-0.26c0.494,-0.442 0.494,-1.17 0.597,-1.741c0,-0.39 0.052,-0.806 0.052,-1.169c0,-0.39 0,-0.78 0,-1.17c0,-0.337 0,-0.701 -0.052,-1.013c-0.103,-1.169 -0.779,-1.637 -1.87,-1.741c-0.39,-0.078 -0.676,-0.078 -1.04,-0.078l-3.975,0c0,0 0,-1.299 0,-1.429l5.145,0c0.805,-0.052 1.507,0 2.338,-0.286c1.195,-0.468 0.988,-2.182 -0.234,-2.468c-0.208,-0.078 -0.519,-0.156 -0.753,-0.156c-0.208,0 -0.494,0 -0.676,0l-0.805,0l-14.941,0l-0.208,0c-0.571,0 -1.273,0.156 -1.689,0.52c-0.493,0.493 -0.441,1.585 0.234,1.948c0.65,0.442 1.793,0.286 2.547,0.286c0.623,0.104 1.299,0.104 1.948,0.104l3.534,0c0,0.13 0,1.351 0,1.481l-4.703,0c-0.987,0 -2.105,0.312 -2.313,1.377c-0.077,0.442 -0.129,0.832 -0.129,1.17l0,1.221c0,0.727 -0.156,1.533 0.052,2.26c0.155,0.442 0.285,0.65 0.571,0.806Zm14.291,-15.097c-0.286,-0.208 -0.675,-0.337 -0.961,-0.493c-0.364,-0.208 -0.65,-0.364 -0.988,-0.52c-0.155,-0.052 -0.285,-0.182 -0.519,-0.286c-0.156,-0.052 -0.286,-0.13 -0.494,-0.182c0,-0.104 -0.078,-0.104 -0.13,-0.104c-0.104,-0.052 -0.156,-0.052 -0.156,-0.13l0.858,0c0.779,0 1.585,0 2.39,-0.052c0.624,0 1.221,-0.13 1.741,-0.545c0.208,-0.208 0.286,-0.494 0.208,-0.936c-0.052,-0.337 -0.286,-0.623 -0.494,-0.779c-0.286,-0.234 -0.571,-0.312 -0.961,-0.39c-0.65,-0.13 -1.351,-0.052 -2.053,-0.052l-3.014,0l0,-1.013c-0.234,-1.455 -3.482,-1.403 -3.482,0.208l0,0.805l-2.442,0c-0.286,0 -0.52,0 -0.676,0c-0.883,0.052 -2.286,-0.156 -2.832,0.884c-0.052,0.155 -0.13,0.337 -0.13,0.545c0.078,0.234 0.078,0.442 0.208,0.572c0.156,0.234 0.312,0.442 0.468,0.52c0.493,0.311 1.403,0.233 1.922,0.233l2.417,0c-0.208,0.078 -0.39,0.13 -0.598,0.286c-0.156,0.078 -0.286,0.13 -0.441,0.234c-0.338,0.13 -0.572,0.286 -0.858,0.338c-0.208,0.156 -0.468,0.234 -0.753,0.442l-1.793,0.883c-0.208,0.13 -0.442,0.286 -0.65,0.416c-0.13,0.208 -0.208,0.441 -0.286,0.649c-0.078,0.208 -0.078,0.416 -0.078,0.572c0.156,1.299 1.741,1.169 2.625,0.728c0.337,-0.13 0.649,-0.286 1.013,-0.416c0.442,-0.234 0.858,-0.468 1.221,-0.598c0.442,-0.156 0.884,-0.364 1.299,-0.571c0.156,-0.078 0.286,-0.208 0.494,-0.286c0.286,-0.078 0.52,-0.208 0.754,-0.312c0.286,-0.13 0.571,-0.234 0.857,-0.39c0.286,0.156 0.52,0.26 0.728,0.338c0.182,0.156 0.441,0.208 0.597,0.364c0.182,0.078 0.338,0.13 0.494,0.208c0.416,0.207 0.78,0.441 1.247,0.649c0.338,0.234 0.78,0.364 1.299,0.598c0.936,0.416 3.118,1.429 3.898,0.286c0.624,-0.962 -0.208,-1.663 -0.909,-2.183c-0.416,-0.208 -0.702,-0.364 -1.04,-0.52Zm-11.822,12.472c0,-0.052 0,-1.091 0.052,-1.143c0,-0.234 0.104,-0.286 0.155,-0.286c0.078,0 0.26,-0.078 0.39,-0.078c0.338,0 0.728,0.078 1.066,0l8.418,0c0.13,0 0.338,0.078 0.598,0.078c0.182,0 0.338,0.052 0.468,0.208c0.104,0.13 0.156,0.286 0.156,0.416c0,0.494 0.077,0.961 -0.442,1.039c-0.13,0.052 -0.988,0.052 -1.143,0.052c-2.599,0.104 -4.548,0.104 -7.068,0c-0.832,0 -1.559,0 -2.365,-0.052c-0.078,0 -0.129,0 -0.233,-0.078c0,0 -0.052,-0.052 -0.052,-0.156Z" style="fill:#5a2c0c;fill-rule:nonzero;"/><path d="M49.233,19.344c-0.442,0.234 -0.754,0.39 -1.039,0.623c-0.338,0.156 -0.572,0.234 -0.832,0.442c-0.208,0.104 -0.494,0.182 -0.831,0.338l-1.767,1.065c-0.208,0.156 -0.442,0.312 -0.598,0.52c-0.156,0.156 -0.26,0.416 -0.364,0.702c-0.052,0.311 -0.052,0.493 -0.052,0.701c0.104,0.416 0.26,0.676 0.572,0.832c0.312,0.104 0.598,0.259 0.909,0.285c0.416,0.052 0.78,-0.026 1.092,-0.285c0.389,-0.156 0.727,-0.364 1.065,-0.52c0.468,-0.234 0.935,-0.468 1.299,-0.676c0.39,-0.233 0.728,-0.415 1.221,-0.649c0.104,-0.13 0.312,-0.234 0.572,-0.338c0.208,-0.104 0.468,-0.208 0.702,-0.338c0.233,-0.156 0.597,-0.338 0.857,-0.494c0.286,0.156 0.494,0.312 0.78,0.468c0.155,0.104 0.337,0.182 0.493,0.364c0.234,0.104 0.39,0.182 0.494,0.286c0.468,0.286 0.831,0.468 1.221,0.701c0.442,0.208 0.858,0.442 1.299,0.676c0.52,0.26 1.066,0.468 1.689,0.624c0.598,0.155 1.118,0.181 1.715,0c0.234,-0.052 0.416,-0.156 0.494,-0.312c0.13,-0.156 0.234,-0.312 0.286,-0.546c0.026,-0.234 0.026,-0.442 0,-0.675c-0.052,-0.182 -0.156,-0.39 -0.312,-0.468c-0.312,-0.286 -0.546,-0.546 -0.909,-0.78c-0.312,-0.234 -0.624,-0.389 -0.962,-0.571c-0.312,-0.208 -0.675,-0.364 -0.987,-0.598c-0.338,-0.156 -0.624,-0.364 -0.962,-0.598c-0.182,-0.078 -0.337,-0.156 -0.493,-0.259c-0.156,-0.052 -0.338,-0.182 -0.494,-0.286c-0.104,-0.078 -0.208,-0.104 -0.312,-0.182c-0.104,-0.052 -0.234,-0.104 -0.286,-0.156c-0.234,-0.104 -0.441,-0.208 -0.701,-0.364l0,-1.351l1.793,0c0.311,0 0.623,0.052 0.857,0.052l1.065,0c0.468,0 0.91,-0.052 1.3,-0.156c0.389,-0.13 0.701,-0.338 0.935,-0.546c0.26,-0.285 0.364,-0.675 0.26,-1.169c-0.104,-0.364 -0.286,-0.701 -0.572,-0.857c-0.234,-0.208 -0.597,-0.312 -0.909,-0.442c-0.338,-0.052 -0.702,-0.052 -1.04,-0.052l-3.845,0l-0.078,-1.169c0,-0.312 -0.078,-0.624 -0.312,-0.832c-0.156,-0.182 -0.442,-0.363 -0.675,-0.493c-0.338,-0.104 -0.624,-0.156 -0.91,-0.156c-0.338,0.052 -0.623,0.104 -0.857,0.286c-0.156,0.181 -0.312,0.337 -0.416,0.415c-0.052,0.156 -0.156,0.312 -0.156,0.494c-0.052,0.182 -0.13,0.338 -0.13,0.494l0.078,0.961l-2.676,0c-0.26,0 -0.494,0 -0.598,0.052c-0.156,0 -0.364,0 -0.675,-0.052l-0.572,0c-0.312,0 -0.624,0.13 -0.936,0.286c-0.311,0.156 -0.519,0.364 -0.701,0.701c-0.104,0.208 -0.104,0.442 -0.104,0.702c0,0.208 0.104,0.494 0.156,0.676c0.182,0.259 0.338,0.415 0.494,0.519c0.207,0.13 0.389,0.182 0.675,0.182c0.182,0 0.416,0 0.598,0.078c0.234,0.026 0.467,0.026 0.701,0.026l3.456,0l0,1.299c-0.338,0.156 -0.701,0.312 -1.065,0.52Zm11.718,6.86c-0.311,-0.078 -0.545,-0.182 -0.909,-0.182c-0.234,0 -0.546,-0.052 -0.857,0l-14.551,0c-0.156,0 -0.338,0 -0.572,0.026c-0.208,0 -0.364,0.078 -0.598,0.156c-0.233,0.104 -0.389,0.207 -0.467,0.311c-0.312,0.286 -0.416,0.624 -0.416,0.936c-0.052,0.312 0.078,0.623 0.26,0.909c0.234,0.338 0.52,0.598 0.909,0.624c0.312,0.13 0.728,0.156 1.118,0.156l5.534,0l0,3.715c0.078,0.26 0.156,0.494 0.286,0.754c0.104,0.26 0.26,0.52 0.494,0.598c0.233,0.155 0.597,0.285 0.987,0.285c0.312,0 0.65,-0.13 0.857,-0.285c0.286,-0.208 0.52,-0.416 0.624,-0.754c0.13,-0.286 0.208,-0.598 0.286,-0.935c0.052,-0.468 0.052,-0.858 0.052,-1.222c0,-0.415 -0.052,-1.585 -0.052,-2.156l5.093,0c0.467,-0.026 0.857,-0.104 1.325,-0.156c0.338,-0.078 0.753,-0.234 0.987,-0.442c0.312,-0.234 0.468,-0.546 0.468,-1.013c0,-0.364 -0.078,-0.65 -0.208,-0.858c-0.182,-0.208 -0.416,-0.312 -0.65,-0.467Z" style="fill:#5a2c0c;fill-rule:nonzero;"/><path d="M64.615,15.446c0,0.884 0.026,3.352 0.026,3.716c0,0.883 0.416,1.793 1.169,2.157c0.702,0.337 1.585,0.337 2.313,0.337l8.886,0c1.378,0 2.963,-0.026 2.937,-1.377c-0.026,-1.377 -1.975,-1.429 -2.859,-1.429l-7.925,0c-0.883,0 -0.987,-0.26 -1.039,-0.987l-0.156,-2.391c-0.104,-1.169 -0.494,-2.052 -1.689,-2.052c-1.117,0 -1.663,1.143 -1.663,2.026Zm3.482,15.643l-0.104,-1.611c-0.052,-0.806 -0.52,-1.585 -1.663,-1.585c-0.727,0 -1.507,0.727 -1.507,1.714l0,2.989c0,0.779 0.546,1.507 2.131,1.507l12.576,0c0.701,0 1.637,-0.338 1.715,-1.378c0.078,-1.117 -0.858,-1.585 -1.611,-1.585l-11.537,-0.051Zm11.952,-7.536c-10.627,0 -12.991,-0.078 -15.252,0.026c-1.039,0.052 -1.949,0.494 -1.949,1.585c0,1.195 1.455,1.351 2.001,1.351l14.837,0.026c1.065,0 2.572,-0.156 2.572,-1.403c0,-1.299 -1.013,-1.585 -2.209,-1.585Z" style="fill:#5a2c0c;fill-rule:nonzero;"/><path d="M95.588,14.329c-0.26,0 -1.793,-0.026 -1.975,-0.026c-0.312,0 -0.572,0 -0.806,0.026c-0.857,0.078 -1.195,0.961 -1.117,1.741c0.13,1.585 3.222,1.299 3.222,1.299l3.014,0l-0.026,0.884c0,0.649 0.026,0.987 -0.441,1.455c-1.17,1.169 -2.937,2.338 -4.08,3.196c-1.091,0.857 -2.26,1.559 -1.377,2.936c0.935,1.247 3.352,-0.182 4.469,-1.04c1.091,-0.883 3.43,-2.702 3.508,-2.65c1.403,1.325 2.78,2.547 4.443,3.612c0.858,0.546 2.547,1.273 2.962,-0.13c0.286,-1.065 -0.441,-1.793 -1.091,-2.469c-1.091,-1.091 -2.858,-2.234 -3.872,-3.403c-0.233,-0.286 -0.493,-0.494 -0.597,-0.884c-0.052,-0.286 -0.052,-0.442 -0.052,-0.727l-0.026,-0.728l3.17,0.026c1.169,0 3.092,0.234 2.884,-1.663c-0.156,-1.741 -1.819,-1.455 -3.066,-1.455c-0.234,0 -0.909,0.052 -1.143,0l-2.053,0l-0.026,-1.377c0,-1.273 -1.871,-1.819 -2.754,-1.169c-0.702,0.493 -0.702,1.637 -0.702,1.637l0,0.909l-2.468,0Zm12.03,15.149c-0.546,-0.052 -1.143,0.026 -1.767,0c-1.585,-0.026 -2.754,-0.026 -4.339,0l-0.026,-3.586c0,-1.273 -1.767,-1.715 -2.65,-1.066c-0.702,0.494 -0.702,1.378 -0.702,1.378l0.026,3.274c-1.715,-0.026 -3.508,-0.026 -5.171,0l-0.13,0c-0.753,0.026 -1.507,-0.026 -2.208,0.233c-0.52,0.208 -0.858,0.858 -0.858,1.378c0,0.415 0.208,0.805 0.546,1.117c0.572,0.493 1.507,0.442 2.235,0.416c0.181,0 0.363,-0.026 0.519,-0.026l14.551,0c0.052,0 1.325,0.052 1.871,-0.494c0.208,-0.234 0.338,-0.754 0.338,-1.117c0,-0.364 -0.13,-0.676 -0.364,-0.91c-0.468,-0.416 -0.987,-0.546 -1.559,-0.597c-0.104,0 -0.208,0.026 -0.312,0Z" style="fill:#5a2c0c;fill-rule:nonzero;"/><path d="M117.05,17.525c1.195,0 6.886,-0.052 8.055,-0.026c0.052,0.676 0.052,1.429 0.052,2.105c-2.182,-0.052 -7.691,0.026 -10.082,0.156c-0.649,0.026 -1.559,0.182 -1.896,0.753c-0.13,0.182 -0.208,0.494 -0.208,0.806c0,0.311 0.104,0.493 0.208,0.701c0.285,0.494 1.195,0.78 1.922,0.78l10.056,0c-0.026,1.247 -0.312,3.196 0.338,4.261c0.624,1.039 2.235,0.728 2.806,-0.286c0.494,-0.883 0.468,-3.43 0.52,-4.417c0.078,-1.637 0,-4.027 0,-5.664c0,-0.598 -0.078,-1.248 -0.39,-1.767c-0.208,-0.338 -0.494,-0.572 -0.831,-0.728c-0.078,-0.026 -0.182,-0.078 -0.26,-0.104c-0.156,-0.052 -0.338,-0.052 -0.468,-0.052c-0.338,-0.026 -0.65,-0.026 -0.961,-0.026c-0.338,0 -0.65,-0.026 -0.988,-0.026l-0.753,0c-0.208,-0.026 -0.442,0 -0.65,0l-6.028,0.026c-0.494,0 -0.961,0 -1.455,0c-0.78,0.026 -1.481,0.026 -2.235,0.234c-0.623,0.182 -1.325,0.572 -1.325,1.351c-0.026,0.91 0.52,1.637 1.169,1.715c1.3,0.156 2.287,0.208 3.404,0.208Zm11.667,11.953c-0.546,-0.052 -1.143,0.026 -1.767,0c-1.897,-0.052 -2.91,0 -5.067,0l-0.701,0l-0.026,-3.56c0,-1.273 -1.897,-1.715 -2.781,-1.066c-0.701,0.494 -0.701,1.378 -0.701,1.378l0.026,3.222c-1.221,0 -2.469,0 -3.612,0.026l-0.13,0c-0.753,0.026 -1.507,-0.026 -2.208,0.233c-0.52,0.208 -0.858,0.858 -0.858,1.378c0,0.415 0.208,0.805 0.546,1.117c0.571,0.493 1.507,0.442 2.234,0.416c0.182,0 0.364,-0.026 0.52,-0.026l14.551,0c0.052,0 1.325,0.052 1.871,-0.494c0.208,-0.234 0.337,-0.754 0.337,-1.117c0,-0.364 -0.129,-0.676 -0.363,-0.91c-0.468,-0.416 -0.988,-0.546 -1.559,-0.597c-0.104,0 -0.208,0.026 -0.312,0Z" style="fill:#5a2c0c;fill-rule:nonzero;"/><path d="M145.762,17.057c0.598,-0.467 0.572,-1.585 0.104,-2.13c-0.494,-0.546 -1.429,-0.65 -2.105,-0.65c-2.754,0 -5.482,-0.026 -8.236,-0.026c-0.832,0 -1.845,0.026 -2.625,0.312c-0.753,0.26 -1.247,1.091 -0.831,1.897c0.519,1.091 1.715,0.935 2.728,0.987c-0.026,0.78 0.052,1.455 0.052,1.559l0,8.861c0,0.623 -0.026,1.247 0,1.896c-0.987,0.104 -3.092,-0.078 -2.91,1.533c0.13,1.144 1.741,1.403 2.598,1.403c0.91,0.026 1.793,0.026 2.677,0.026c1.299,-0.026 2.598,-0.026 3.923,-0.026c0.832,0 1.715,0.026 2.572,0c1.326,-0.025 2.365,0.26 2.495,-1.455c0.104,-1.039 -0.338,-1.195 -1.169,-1.325c-0.13,-0.026 -1.611,-0.26 -1.611,-0.208l0,-11.069c0,-0.285 0,-0.727 -0.078,-1.195c0.675,-0.156 1.481,0.078 2.104,-0.208c0.13,-0.052 0.234,-0.104 0.312,-0.182Zm5.743,4.236c-0.13,0.026 -0.234,0 -0.364,-0.026c-0.026,0 -0.546,0 -0.546,-0.026c-0.052,-0.182 -0.052,-0.39 -0.052,-0.572l0,-1.481c0,-0.182 -0.026,-0.364 0,-0.572c0,-0.389 -0.026,-0.727 -0.026,-1.117c-0.026,-0.624 -0.026,-1.273 -0.104,-1.845c0,-0.104 0,-0.208 -0.026,-0.312c-0.052,-0.571 -0.078,-1.117 -0.545,-1.611c-0.234,-0.233 -0.572,-0.389 -0.962,-0.389c-0.39,0 -0.935,0.13 -1.169,0.363c-0.572,0.572 -0.546,1.871 -0.546,1.923l0,15.435c0,1.091 0.182,3.118 1.871,3.17c0.026,0 0.052,0.026 0.052,0.026c0.338,0 0.624,-0.13 0.832,-0.364c0.623,-0.624 0.623,-1.949 0.623,-2.858l0,-0.364c0.026,-0.858 0.026,-1.767 0,-2.651c0,-0.883 -0.026,-2.39 0,-3.248c0,-0.103 0.026,-0.103 0.026,-0.103c0,0 0.026,-0.026 0.078,-0.026c0.546,-0.026 1.481,0.052 2.027,-0.026c0.26,-0.052 0.494,-0.182 0.701,-0.338c0.234,-0.182 0.312,-0.546 0.364,-0.806c0.078,-0.26 0.078,-0.493 0.078,-0.753c0,-0.234 -0.052,-0.468 -0.182,-0.676c-0.182,-0.39 -0.597,-0.545 -0.987,-0.623c-0.208,-0.026 -0.416,-0.052 -0.598,-0.078c-0.182,0 -0.338,-0.052 -0.493,-0.052l-0.052,0Zm-13.616,-2.027c-0.026,-0.494 -0.026,-1.273 0.052,-1.533c0.026,-0.13 0.052,-0.208 0.13,-0.286l2.131,0c0.052,0.078 0.078,0.182 0.078,0.286c0.078,0.468 0.078,2.027 0.078,2.053l0,9.925l-2.313,0c-0.13,-0.285 -0.182,-0.649 -0.182,-0.753l0.052,-9.094c0,-0.156 0,-0.338 -0.026,-0.598Z" style="fill:#5a2c0c;fill-rule:nonzero;"/><path d="M160.157,13.264c-0.208,0.026 -0.442,0.026 -0.649,0.052c-0.988,0.13 -1.975,0.545 -2.729,1.299c-0.441,0.416 -0.779,0.961 -1.039,1.533c-0.26,0.572 -0.338,1.117 -0.468,1.741c-0.13,0.753 -0.208,1.559 -0.26,2.338c-0.104,0.962 -0.156,1.923 -0.156,2.911c0,1.455 0.052,2.91 0.182,4.365c0.052,0.883 0.26,1.767 0.598,2.572c0.468,1.091 1.091,1.949 2.027,2.495c0.987,0.571 2.156,0.701 3.222,0.493c1.169,-0.234 2.312,-0.961 3.04,-2.078c0.857,-1.326 1.091,-3.067 1.273,-4.677c0.182,-1.56 0.208,-3.17 0.13,-4.756c-0.104,-2.468 -0.468,-5.508 -2.157,-7.275c-0.493,-0.494 -1.091,-0.805 -1.741,-0.909c-0.415,-0.052 -0.831,-0.104 -1.273,-0.104Zm12.602,18.604c0.026,-0.312 0,-0.624 0,-0.935l0,-6.236c0,-2.495 0.078,-5.431 0,-8.081l0,-0.13c-0.026,-0.806 0,-1.611 -0.312,-2.339c-0.207,-0.571 -0.753,-0.935 -1.351,-0.935c-0.467,0 -0.909,0.052 -1.273,0.415c-0.494,0.468 -0.52,1.767 -0.494,2.573l0,15.72c0,0.052 -0.026,1.403 0.598,1.975c0.182,0.156 0.416,0.26 0.676,0.312c0.441,0.103 0.935,0.052 1.325,-0.182c0.208,-0.156 0.364,-0.364 0.467,-0.572c0.052,-0.13 0.104,-0.234 0.156,-0.364c0.13,-0.415 0.156,-0.805 0.208,-1.221Zm-12.68,-2.261c-1.715,-0.026 -1.949,-2.728 -2.079,-4.521c-0.051,-0.675 0.026,-1.325 0,-2.026c0,-0.702 0.052,-1.43 0.104,-2.131c0.052,-0.702 0.156,-1.429 0.364,-2.079l0.234,-0.545c0.312,-0.676 0.832,-1.04 1.403,-1.092c0.546,-0.078 1.065,0.286 1.403,0.858c0.624,1.065 0.65,2.78 0.676,4.105c0.052,1.637 0.078,3.56 -0.208,5.145c-0.156,0.831 -0.364,1.559 -0.935,1.975c-0.312,0.208 -0.65,0.311 -0.962,0.311Z" style="fill:#5a2c0c;fill-rule:nonzero;"/></g></g></svg>