<?xml version="1.0" encoding="UTF-8"?>
<svg width="62px" height="22px" viewBox="0 0 62 22" version="1.1" xmlns="http://www.w3.org/2000/svg" xmlns:xlink="http://www.w3.org/1999/xlink">
    <!-- Generator: Sketch 42 (36781) - http://www.bohemiancoding.com/sketch -->
    <title>Page 1</title>
    <desc>Created with Sketch.</desc>
    <defs>
        <linearGradient x1="50%" y1="0%" x2="50%" y2="100%" id="linearGradient-1">
            <stop stop-color="#F3F3F3" offset="0%"></stop>
            <stop stop-color="#F5F5F5" offset="84.8221252%"></stop>
            <stop stop-color="#C9C9C9" offset="100%"></stop>
        </linearGradient>
    </defs>
    <g id="Page-1" stroke="none" stroke-width="1" fill="none" fill-rule="evenodd">
        <g id="Artboard" transform="translate(-183.000000, -315.000000)">
            <g id="Page-1" transform="translate(183.000000, 315.000000)">
                <path d="M59.5089286,1.925 L2.49107143,1.925 L3.04464286,11.9625 C3.04464286,17.5023475 7.57150089,22 13.1473214,22 L48.8526786,22 C54.4285268,22 58.9553571,17.5023475 58.9553571,11.9625 L59.5089286,1.925 Z" id="Fill-1" fill="url(#linearGradient-1)"></path>
                <path d="M62,0.9625 C62,0.4312825 61.566,0 61.03125,0 L0.96875,0 C0.434083036,0 0,0.4312825 0,0.9625 L0,2.8875 C0,3.4187175 0.434083036,3.85 0.96875,3.85 L61.03125,3.85 C61.566,3.85 62,3.4187175 62,2.8875 L62,0.9625 Z" id="Fill-2" fill="#343434"></path>
            </g>
        </g>
    </g>
</svg>