<?xml version="1.0" encoding="UTF-8" standalone="no"?><!DOCTYPE svg PUBLIC "-//W3C//DTD SVG 1.1//EN" "http://www.w3.org/Graphics/SVG/1.1/DTD/svg11.dtd"><svg width="100%" height="100%" viewBox="0 0 24 13" version="1.1" xmlns="http://www.w3.org/2000/svg" xmlns:xlink="http://www.w3.org/1999/xlink" xml:space="preserve" style="fill-rule:evenodd;clip-rule:evenodd;stroke-linejoin:round;stroke-miterlimit:1.41421;"><g id="menu-button"><path d="M24,11.5c0,-0.828 -0.672,-1.5 -1.5,-1.5l-21,0c-0.828,0 -1.5,0.672 -1.5,1.5c0,0.828 0.672,1.5 1.5,1.5l21,0c0.828,0 1.5,-0.672 1.5,-1.5Z" style="fill:#fff;"/><path d="M24,1.5c0,-0.828 -0.672,-1.5 -1.5,-1.5l-21,0c-0.828,0 -1.5,0.672 -1.5,1.5c0,0.828 0.672,1.5 1.5,1.5l21,0c0.828,0 1.5,-0.672 1.5,-1.5Z" style="fill:#fff;"/></g></svg>