<?xml version="1.0" encoding="UTF-8" standalone="no"?><!DOCTYPE svg PUBLIC "-//W3C//DTD SVG 1.1//EN" "http://www.w3.org/Graphics/SVG/1.1/DTD/svg11.dtd"><svg width="100%" height="100%" viewBox="0 0 48 71" version="1.1" xmlns="http://www.w3.org/2000/svg" xmlns:xlink="http://www.w3.org/1999/xlink" xml:space="preserve" style="fill-rule:evenodd;clip-rule:evenodd;stroke-linejoin:round;stroke-miterlimit:1.41421;"><g id="padlock"><path d="M5.838,18.162c0,-10.024 8.138,-18.162 18.162,-18.162c10.024,0 18.162,8.138 18.162,18.162l0,25.838l-36.324,0l0,-25.838Zm30.958,18.038l0,-18.204c0,-7.062 -5.734,-12.796 -12.796,-12.796c-7.062,0 -12.796,5.734 -12.796,12.796l0,18.204l25.592,0Z" style="fill:#acacac;"/><path d="M48,32.36c0,-1.854 -1.506,-3.36 -3.36,-3.36l-41.28,0c-1.854,0 -3.36,1.506 -3.36,3.36l0,35.28c0,1.854 1.506,3.36 3.36,3.36l41.28,0c1.854,0 3.36,-1.506 3.36,-3.36l0,-35.28Z" style="fill:#e5a502;"/></g></svg>