<?xml version="1.0" encoding="UTF-8" standalone="no"?><!DOCTYPE svg PUBLIC "-//W3C//DTD SVG 1.1//EN" "http://www.w3.org/Graphics/SVG/1.1/DTD/svg11.dtd"><svg width="100%" height="100%" viewBox="0 0 90 95" version="1.1" xmlns="http://www.w3.org/2000/svg" xmlns:xlink="http://www.w3.org/1999/xlink" xml:space="preserve" style="fill-rule:evenodd;clip-rule:evenodd;stroke-linejoin:round;stroke-miterlimit:1.41421;"><g id="quizstage"><rect x="0" y="82.934" width="90" height="11.5" style="fill:#fff;"/><path d="M72.962,71.796c1.86,-1.364 2.48,-2.728 2.48,-4.588c0,-1.488 -0.496,-2.852 -1.612,-4.216c-0.868,-0.992 -1.488,-1.86 -2.356,-2.852c5.828,-6.324 9.176,-14.384 9.176,-24.304c0,-21.204 -16.616,-35.836 -35.712,-35.836c-21.328,0 -35.588,15.872 -35.588,35.836c0,22.816 16.988,35.464 35.588,35.464c5.952,0 11.532,-1.24 16.864,-3.844c0.868,0.992 1.612,2.108 2.48,3.1c1.984,2.48 5.084,4.092 8.68,1.24Zm-28.024,-60.264c13.64,0 23.436,11.036 23.436,24.428c0,6.076 -1.736,10.788 -4.34,14.632c-2.108,-2.852 -4.216,-5.456 -6.2,-8.06c-1.984,-2.48 -5.332,-3.968 -8.804,-1.364c-1.612,1.364 -2.48,2.852 -2.48,4.588c0,1.488 0.744,2.852 1.736,4.216c1.984,2.852 4.216,5.332 6.324,8.184c-3.1,1.24 -6.324,1.86 -9.672,1.86c-15.376,0 -23.436,-11.284 -23.436,-24.056c0,-14.88 10.54,-24.428 23.436,-24.428Z" style="fill:#fff;fill-rule:nonzero;"/></g></svg>