<?xml version="1.0" encoding="UTF-8" standalone="no"?><!DOCTYPE svg PUBLIC "-//W3C//DTD SVG 1.1//EN" "http://www.w3.org/Graphics/SVG/1.1/DTD/svg11.dtd"><svg width="100%" height="100%" viewBox="0 0 64 64" version="1.1" xmlns="http://www.w3.org/2000/svg" xmlns:xlink="http://www.w3.org/1999/xlink" xml:space="preserve" style="fill-rule:evenodd;clip-rule:evenodd;stroke-linejoin:round;stroke-miterlimit:1.41421;"><g id="search"><path d="M25.5,0c14.074,0 25.5,11.426 25.5,25.5c0,14.074 -11.426,25.5 -25.5,25.5c-14.074,0 -25.5,-11.426 -25.5,-25.5c0,-14.074 11.426,-25.5 25.5,-25.5Zm0,6.695c10.379,0 18.805,8.426 18.805,18.805c0,10.379 -8.426,18.805 -18.805,18.805c-10.379,0 -18.805,-8.426 -18.805,-18.805c0,-10.379 8.426,-18.805 18.805,-18.805Z" style="fill:#e2730e;"/><path d="M45.328,39.671c-1.561,-1.561 -4.096,-1.561 -5.657,0c-1.561,1.561 -1.561,4.096 0,5.657l17.001,17c1.561,1.561 4.095,1.561 5.656,0c1.561,-1.561 1.561,-4.095 0,-5.656l-17,-17.001Z" style="fill:#e2730e;"/></g></svg>