<?xml version="1.0" encoding="UTF-8" standalone="no"?><!DOCTYPE svg PUBLIC "-//W3C//DTD SVG 1.1//EN" "http://www.w3.org/Graphics/SVG/1.1/DTD/svg11.dtd"><svg width="100%" height="100%" viewBox="0 0 70 85" version="1.1" xmlns="http://www.w3.org/2000/svg" xmlns:xlink="http://www.w3.org/1999/xlink" xml:space="preserve" style="fill-rule:evenodd;clip-rule:evenodd;stroke-linejoin:round;stroke-miterlimit:1.41421;"><g><path d="M54.5,19.9l-39,0c0,-10.762 8.738,-19.5 19.5,-19.5c10.762,0 19.5,8.738 19.5,19.5Zm-3.532,2.5l0,-2.291c0,-8.822 -7.162,-15.985 -15.984,-15.985c-8.822,0 -15.984,7.163 -15.984,15.985l0,2.291l31.968,0Z" style="fill:#fff;"/><path d="M66.78,19.777c1.777,0 3.22,1.443 3.22,3.221l0,57.966c0,1.777 -1.443,3.22 -3.22,3.22l-63.56,0c-1.777,0 -3.22,-1.443 -3.22,-3.22l0,-57.966c0,-1.778 1.443,-3.221 3.22,-3.221l63.56,0Zm-49.53,3.447c1.518,0 2.75,1.233 2.75,2.75c0,1.518 -1.232,2.75 -2.75,2.75c-1.518,0 -2.75,-1.232 -2.75,-2.75c0,-1.517 1.232,-2.75 2.75,-2.75Zm35.5,0c1.518,0 2.75,1.233 2.75,2.75c0,1.518 -1.232,2.75 -2.75,2.75c-1.518,0 -2.75,-1.232 -2.75,-2.75c0,-1.517 1.232,-2.75 2.75,-2.75Z" style="fill:#fff;"/></g></svg>