<?xml version="1.0" encoding="UTF-8" standalone="no"?><!DOCTYPE svg PUBLIC "-//W3C//DTD SVG 1.1//EN" "http://www.w3.org/Graphics/SVG/1.1/DTD/svg11.dtd"><svg width="100%" height="100%" viewBox="0 0 57 57" version="1.1" xmlns="http://www.w3.org/2000/svg" xmlns:xlink="http://www.w3.org/1999/xlink" xml:space="preserve" style="fill-rule:evenodd;clip-rule:evenodd;stroke-linejoin:round;stroke-miterlimit:1.41421;"><g id="solved"><circle cx="28.5" cy="28.5" r="28.5" style="fill:#16c26b;"/><g><path d="M17.02,26.279c-0.783,-0.782 -2.054,-0.782 -2.837,0c-0.783,0.783 -0.783,2.054 0,2.837l9.134,9.134c0.783,0.783 2.054,0.783 2.837,0c0.783,-0.783 0.783,-2.054 0,-2.837l-9.134,-9.134Z" style="fill:#fff;"/><path d="M42.817,21.587c0.783,-0.783 0.783,-2.054 0,-2.837c-0.783,-0.783 -2.054,-0.783 -2.837,0l-16.663,16.663c-0.783,0.783 -0.783,2.054 0,2.837c0.783,0.783 2.054,0.783 2.837,0l16.663,-16.663Z" style="fill:#fff;"/></g></g></svg>