<?xml version="1.0" encoding="UTF-8" standalone="no"?><!DOCTYPE svg PUBLIC "-//W3C//DTD SVG 1.1//EN" "http://www.w3.org/Graphics/SVG/1.1/DTD/svg11.dtd"><svg width="100%" height="100%" viewBox="0 0 56 65" version="1.1" xmlns="http://www.w3.org/2000/svg" xmlns:xlink="http://www.w3.org/1999/xlink" xml:space="preserve" style="fill-rule:evenodd;clip-rule:evenodd;stroke-linecap:round;stroke-miterlimit:1.5;"><g id="upload"><rect x="2.616" y="2.454" width="51.01" height="59.512" style="fill:#f4f9ff;stroke:#3283f8;stroke-width:2.36px;"/><path d="M47.013,13.79c0,-0.522 -0.423,-0.945 -0.944,-0.945l-35.896,0c-0.522,0 -0.945,0.423 -0.945,0.945c0,0.521 0.423,0.944 0.945,0.944l35.896,0c0.521,0 0.944,-0.423 0.944,-0.944Z" style="fill:#3283f8;"/><path d="M47.013,22.764c0,-0.522 -0.423,-0.945 -0.944,-0.945l-35.896,0c-0.522,0 -0.945,0.423 -0.945,0.945c0,0.521 0.423,0.944 0.945,0.944l35.896,0c0.521,0 0.944,-0.423 0.944,-0.944Z" style="fill:#3283f8;"/><path d="M47.013,31.738c0,-0.522 -0.423,-0.945 -0.944,-0.945l-35.896,0c-0.522,0 -0.945,0.423 -0.945,0.945c0,0.521 0.423,0.944 0.945,0.944l35.896,0c0.521,0 0.944,-0.423 0.944,-0.944Z" style="fill:#3283f8;"/><path d="M47.013,40.712c0,-0.522 -0.423,-0.945 -0.944,-0.945l-35.896,0c-0.522,0 -0.945,0.423 -0.945,0.945c0,0.521 0.423,0.944 0.945,0.944l35.896,0c0.521,0 0.944,-0.423 0.944,-0.944Z" style="fill:#3283f8;"/></g></svg>